<svg xmlns="http://www.w3.org/2000/svg" id="Capa_1" data-name="Capa 1" viewBox="0 0 1080 1080"><path d="M383,521.66c.38-.95-1.18-2.23-1.84-2.76a4.7,4.7,0,0,0-3-1,2,2,0,0,0-2,1.36,1.55,1.55,0,0,0,0,.21,2.88,2.88,0,0,0,.08,1.09c.29,1.45,1,3.18,2.69,3.32a3.8,3.8,0,0,0,1.94-.45,7.85,7.85,0,0,0,1.6-1A1.79,1.79,0,0,0,383,521.66Z"></path><path d="M477.87,501.75a3.87,3.87,0,0,0,1.94-.45,8.7,8.7,0,0,0,1.61-1,1.87,1.87,0,0,0,.61-.73c.39-.95-1.18-2.22-1.84-2.75a4.62,4.62,0,0,0-3-1,2,2,0,0,0-2,1.36,1.12,1.12,0,0,0,0,.21,2.83,2.83,0,0,0,.08,1.08C475.47,499.87,476.16,501.61,477.87,501.75Z"></path><path d="M553.6,552a4.7,4.7,0,0,0-3-1,2,2,0,0,0-2,1.36,1.55,1.55,0,0,0,0,.21,2.88,2.88,0,0,0,.08,1.09c.29,1.45,1,3.18,2.69,3.32a3.8,3.8,0,0,0,1.94-.45,8.2,8.2,0,0,0,1.61-1,1.84,1.84,0,0,0,.61-.72C555.82,553.78,554.26,552.5,553.6,552Z"></path><path d="M459.93,582.71a4.7,4.7,0,0,0-3-1,2,2,0,0,0-2,1.36,1.6,1.6,0,0,0-.05.21,3.35,3.35,0,0,0,.08,1.09c.3,1.45,1,3.18,2.7,3.32a3.8,3.8,0,0,0,1.94-.45,7.85,7.85,0,0,0,1.6-1,1.87,1.87,0,0,0,.62-.72C462.15,584.52,460.59,583.24,459.93,582.71Z"></path><path d="M619.33,568.58a3.33,3.33,0,0,0-2.14-.73,1.37,1.37,0,0,0-1.43,1,.4.4,0,0,0,0,.15,2.17,2.17,0,0,0,0,.76c.21,1,.7,2.26,1.91,2.36a2.87,2.87,0,0,0,1.37-.32,6.36,6.36,0,0,0,1.13-.72,1.35,1.35,0,0,0,.44-.51C620.9,569.86,619.79,569,619.33,568.58Z"></path><path d="M292.61,595.23a1.55,1.55,0,0,0-.93,0c-.6.15-1.19.27-1.79.4a1.31,1.31,0,0,0-.88.53,2,2,0,0,0,.67,2.3,1.31,1.31,0,0,0,1.11.13,6.89,6.89,0,0,0,2.08-.66,1.1,1.1,0,0,0,.31-.34,1.74,1.74,0,0,0,.18-.84,2,2,0,0,0-.14-.88A1.18,1.18,0,0,0,292.61,595.23Z"></path><path d="M555.65,529.93a2,2,0,0,0,.67,2.3,1.32,1.32,0,0,0,1.11.14,6.65,6.65,0,0,0,2.08-.67,1,1,0,0,0,.31-.34,1.72,1.72,0,0,0,.18-.84,2,2,0,0,0-.14-.87,1.14,1.14,0,0,0-.61-.63,1.48,1.48,0,0,0-.93,0l-1.79.39A1.35,1.35,0,0,0,555.65,529.93Z"></path><path d="M300.52,520.3a2.8,2.8,0,0,0,1.53-1.93,2.17,2.17,0,0,0-.18-1.71,3.65,3.65,0,0,0-.92-1,2,2,0,0,0-1-.46,1.35,1.35,0,0,0-.35,0,4.52,4.52,0,0,0-1.56.9c-.68.46-1.36.92-2,1.39s-1.9,1-1.95,1.87a1,1,0,0,0,.39.76,1.7,1.7,0,0,0,.82.3,19.75,19.75,0,0,0,2-.06C298.4,520.38,299.5,520.75,300.52,520.3Z"></path><path d="M549.69,482.81a15.3,15.3,0,0,0,2-.06c1.06,0,2.16.37,3.19-.07a2.88,2.88,0,0,0,1.53-1.93,2.2,2.2,0,0,0-.19-1.72,3.65,3.65,0,0,0-.92-1,2,2,0,0,0-1-.46,1.35,1.35,0,0,0-.35,0,4.61,4.61,0,0,0-1.56.9l-2,1.4c-.58.4-1.9,1-1.94,1.86a.92.92,0,0,0,.38.76A1.64,1.64,0,0,0,549.69,482.81Z"></path><path d="M310.87,547.17a4.87,4.87,0,0,0,1.25.2,1.25,1.25,0,0,0,.9-.36c.76-.82-.12-1.87-.7-2.46a1.71,1.71,0,0,0-.48-.38c-.61-.26-1.48.51-1.66,1s-.25,1.38.2,1.76A1.13,1.13,0,0,0,310.87,547.17Z"></path><path d="M449.73,581.82A5.25,5.25,0,0,0,451,582a1.23,1.23,0,0,0,.9-.35c.76-.82-.11-1.88-.7-2.47a1.47,1.47,0,0,0-.48-.38c-.61-.26-1.47.51-1.65,1a1.8,1.8,0,0,0,.19,1.77A1.24,1.24,0,0,0,449.73,581.82Z"></path><path d="M516.51,626c-.6-.25-1.47.52-1.65,1s-.25,1.37.2,1.76a1.13,1.13,0,0,0,.49.21,5.92,5.92,0,0,0,1.25.2,1.3,1.3,0,0,0,.9-.36c.76-.82-.12-1.88-.7-2.47A2,2,0,0,0,516.51,626Z"></path><path d="M480.67,529.32c.76-.82-.11-1.88-.7-2.47a1.47,1.47,0,0,0-.48-.38c-.6-.25-1.47.52-1.65,1a1.76,1.76,0,0,0,.2,1.76,1,1,0,0,0,.49.21,5.25,5.25,0,0,0,1.24.19A1.23,1.23,0,0,0,480.67,529.32Z"></path><path d="M556.45,485.74a1.12,1.12,0,0,0,.5.21,5.26,5.26,0,0,0,1.24.2,1.24,1.24,0,0,0,.9-.36c.76-.82-.11-1.87-.7-2.47a1.79,1.79,0,0,0-.48-.38c-.61-.25-1.47.52-1.65,1A1.78,1.78,0,0,0,556.45,485.74Z"></path><path d="M895.52,604.34a1.6,1.6,0,0,0-.5,1.83,2.46,2.46,0,0,0,1.41,1.53,4,4,0,0,0,2.1.24,1.44,1.44,0,0,0,.51-.15C900.94,606.67,897.83,602.58,895.52,604.34Z"></path><path d="M947,470.5a1.59,1.59,0,0,0,1-1.64,2.44,2.44,0,0,0-1-1.83,4,4,0,0,0-2-.79,1.35,1.35,0,0,0-.53,0C942.41,466.83,944.33,471.6,947,470.5Z"></path><path d="M384.65,495.75a1.22,1.22,0,0,0,.64-.08,2.65,2.65,0,0,0,1.49-2.35,1.77,1.77,0,0,0-2.86-1.51,2,2,0,0,0-.78.86,2,2,0,0,0,.12,1.6C383.56,494.88,384,495.63,384.65,495.75Z"></path><path d="M699.29,482.52a1.81,1.81,0,0,0-.78.86,2,2,0,0,0,.12,1.59c.3.61.75,1.36,1.39,1.48a1,1,0,0,0,.64-.08,2.63,2.63,0,0,0,1.49-2.34A1.77,1.77,0,0,0,699.29,482.52Z"></path><path d="M299.64,586.88c-3.71-.32-1.93,6.28-1.32,8a2.12,2.12,0,0,0,.54.93.83.83,0,0,0,.18.13c1.18.62,2.56-.94,3.07-1.81a4.32,4.32,0,0,0,.34-3.41C302.08,589.39,301.34,587,299.64,586.88Z"></path><path d="M651.59,566.48a4.32,4.32,0,0,0-3,1.63c-.92,1.07-2.48,3-1.64,4.5,1.81,3.24,6.28-1.92,7.4-3.41a2.06,2.06,0,0,0,.47-1,.89.89,0,0,0,0-.23C654.66,566.69,652.6,566.42,651.59,566.48Z"></path><path d="M804.47,550.28a4.34,4.34,0,0,0-3,1.62c-.92,1.08-2.47,3-1.64,4.5,1.81,3.25,6.29-1.91,7.4-3.4a2.21,2.21,0,0,0,.48-1,.81.81,0,0,0,0-.22C807.55,550.48,805.48,550.22,804.47,550.28Z"></path><path d="M921.33,529.62a2.11,2.11,0,0,0,.48-1,.81.81,0,0,0,0-.22c-.14-1.33-2.21-1.59-3.22-1.53a4.36,4.36,0,0,0-3,1.62c-.92,1.08-2.47,3-1.64,4.5C915.74,536.27,920.22,531.11,921.33,529.62Z"></path><path d="M207.12,563.42a24.22,24.22,0,0,0-9.84-17.16,28.48,28.48,0,0,0-9.2-4.56,67,67,0,0,0-13.46-1.63,53.31,53.31,0,0,1-11-1.34,20.45,20.45,0,0,1-7.09-4.09c-.22,1.16-.44,2.46-.62,3.91s-.36,2.79-.58,4c-2.49,14.34-4.88,26-7.27,35a135.87,135.87,0,0,1-8.22,23.31,64.44,64.44,0,0,1-8,12.93c11.22,1.63,19.15,2.64,23.85,3a68.43,68.43,0,0,0,13.83-.4,40.58,40.58,0,0,0,13.65-4.06,34.27,34.27,0,0,0,10.49-8.76,61,61,0,0,0,10.75-19.44A46.47,46.47,0,0,0,207.12,563.42Z"></path><path d="M523.44,530a2.56,2.56,0,0,0,.47-1.2c0-1.45-2.06-1.52-3.44-1.16-3,.76-6,1.45-9,2.07h-.07a3.19,3.19,0,0,1-2.28-.22,1.08,1.08,0,0,1-.55-.33c-.14-.14-.28-.29-.43-.47A1.9,1.9,0,0,1,508,528a4.86,4.86,0,0,1,1.7-3.11A49.09,49.09,0,0,0,518.66,510c2.57-6.08,4.09-11.77,4.24-16.62a15.37,15.37,0,0,1,.25-3.22c.07-.36.15-.65.22-.9s.07-.51.07-.69c0-1.2-.9-1.81-2.64-1.81-3.66,0-9.19,3.65-16.62,11.07A100.06,100.06,0,0,0,491,514.67a97,97,0,0,0-9.33,19.51c-.62,2-1.2,3.84-1.6,5.62a43.31,43.31,0,0,0-1.52,11.83c.15,5.07,1.45,7.57,4.09,7.5a3.35,3.35,0,0,0,1.09-.22c.58-.22,1.05-.33,1.52-.54a91.93,91.93,0,0,0,16.29-7.14c8.58-5,16.18-11.69,21.25-20.27C523,530.67,523.22,530.31,523.44,530Z"></path><path d="M677.36,528.86c-.47.15-1,.37-1.45.51-2.13.83-4.41,1.59-6.77,2.43h-.07a15.53,15.53,0,0,1-2.86.47,2.71,2.71,0,0,0-.69.07h-.14c-3-.22-4.64-.91-5-2.21a1.93,1.93,0,0,1-.08-.69,17.45,17.45,0,0,1,2.5-4.7c5.47-7.13,8.36-14,8.73-20.49a25.09,25.09,0,0,0-1.6-10.39c-1.19-3.19-2.71-4.78-4.38-4.85-1.45-.07-3.8,1.3-7,4.09A120.66,120.66,0,0,0,637,519.31c-5.39,9-8.15,17.19-8.44,24.43a21.9,21.9,0,0,0,2.65,12,10.35,10.35,0,0,0,4,4c2.9.91,5.94-.07,8.73-1a30.9,30.9,0,0,0,3.18-1.23c1.6-.54,3.19-1.26,4.71-1.95.11-.07.18-.07.33-.15,1.44-.68,3-1.37,4.45-2.13a46.09,46.09,0,0,0,4-2.28h.07c1.45-.84,2.86-1.81,4.24-2.75a46.31,46.31,0,0,0,12.92-14.12,30.58,30.58,0,0,0,1.89-3.69,2.82,2.82,0,0,0,.28-1C679.93,528.47,678.34,528.54,677.36,528.86Z"></path><path d="M997.14,436.16a46.88,46.88,0,0,0-15.93-5.29,95.53,95.53,0,0,0-31.67.62c-12.38,2.28-22.15,6.22-29.94,12.05a63.57,63.57,0,0,0-17.26,20.82c-3.62,6.37-7.28,13.28-10.94,20.67l-3.11,6.19L883,486.73C876,480.79,867,477.17,856.22,476a55.67,55.67,0,0,0-22.63,2l-4,1.19-2.18-3.62a43.89,43.89,0,0,0-3.54-5.07c-5.11-6.08-14.45-13.68-30.16-15.13a52,52,0,0,0-37.46,11.26,73.2,73.2,0,0,0-7,6.55l-4.45,4.75-3.87-5.25a58.83,58.83,0,0,0-14.09-13.32c-.39-.29-.86-.62-1.34-.91l-4.56-2.93,2.94-4.6a66.53,66.53,0,0,0,7.78-16.65l.58-2a32.84,32.84,0,0,0,.9-7.82,30,30,0,0,0-.69-6.44,30.38,30.38,0,0,0-8.94-15.71l-1.73-1.63v-2.35a53.39,53.39,0,0,0-6-21.76c-7-13.75-19.48-21.39-33.38-20.49-12.38.8-20.81,8.26-26.82,14.74l-.26.29c-10.28,12.12-17.8,23.71-23.09,35.62C625.74,420.81,623,434.35,624,447a53.44,53.44,0,0,0,1.27,8.07l.91,4-3.59,2-1.19.65a156.87,156.87,0,0,0-21.58,15l-5.43,4.46-2.93-6.37a48,48,0,0,0-18.35-20.49c-11-6.92-24.94-10.28-42.46-10.28-16.15,0-32.76,4-49.45,11.76a159,159,0,0,0-39.35,26.5l-5.68,5.18-3-7.06c-4.41-10.57-12.63-19.08-24.32-25.34-13-6.88-28.31-9.85-45.69-8.83-20,1.23-39.92,8.9-59,22.8-3.83,2.82-7.67,5.9-11.29,9.16l-9.45,8.36.4-12.6a79.23,79.23,0,0,0-.29-9.7,57.1,57.1,0,0,0-13.1-31.31,68.38,68.38,0,0,0-26.5-18.79A104.73,104.73,0,0,0,212.24,407a179,179,0,0,0-35,.87c-20,2.43-38.15,6.77-54,13-18.17,7-31.63,15.6-41.26,26.42l-.15.19c-5,5.93-9,13.14-12.49,22.29-4.09,10.9-5.43,19.81-4.2,28a34.14,34.14,0,0,0,10.68,19.91l2.21,2-.54,3c-2.28,12-4,21.32-6.66,36.45-2,11.58-3.48,23-4.53,33.77-1.48,15.93-1.26,22.19-.54,26.68a45.11,45.11,0,0,0,16.47,28.81l1.45,1.16.47,1.81c2,8.11,7.6,19.37,23.06,26.72,7.27,3.44,15.85,5.61,26.21,6.62,4.05.33,7.45.51,10.6.51a130.37,130.37,0,0,0,16.51-1.16c11.62-1.63,24.25-6,38.48-13.36a250.88,250.88,0,0,0,37.21-23.74,219.74,219.74,0,0,0,23.86-21l3.43-3.55,3.84,3.12c12.89,10.39,28.74,15.2,46,13.93,9.81-.72,19.7-4.16,29.36-10.21a107.28,107.28,0,0,0,9.74-6.84l3.37-2.6,3.36,2.64c12.45,9.92,26.9,10.42,32.47,10.21a63.53,63.53,0,0,0,25.81-7.06l8-4.16-.07,9c0,.68,0,1.37,0,2.06.29,14.15,6,26.93,16.65,37S465.27,685,478.88,685c.22,0,.44,0,.58,0l.58,0c12.09-.21,25-4,39.53-11.47a122.53,122.53,0,0,0,52.13-49.23l2.78-4.82,4.78,2.93a66.43,66.43,0,0,0,32.91,9.71c9.41.36,19.47-2,30-7,3.44-1.71,6.81-3.55,10.28-5.69l3.62-2.28,3.08,3c11.8,11.7,26.6,13.43,30.84,13.69a66,66,0,0,0,26.61-4.13l2.89-1.09,2.43,1.92a48,48,0,0,0,26,10.14,45.4,45.4,0,0,0,34-11.59c1.7-1.55,3.51-3.33,5.72-5.64l4.45-4.71L796,624a56.22,56.22,0,0,0,5.61,6.52,50.9,50.9,0,0,0,31.1,15.27,60,60,0,0,0,22.4-2c.51-.11.94-.22,1.38-.36l2.42-.76,2.14,1.34a43,43,0,0,0,17.85,6.33c11.47,1.49,24-.9,37.21-7.09a49,49,0,0,0,17.12-12.67,90.59,90.59,0,0,0,11.08-16.51c4-7.42,6.3-14.08,7.16-20.41a37.45,37.45,0,0,0,.11-9.92l-.29-2.28,1.45-1.81c3.44-4.24,9.85-13.72,31.1-47.89,26.93-43.33,29.75-51.55,31-59.12a35.22,35.22,0,0,0-17.7-36.52ZM658.43,415.31a119.07,119.07,0,0,1,18.46-28.42c2.86-3.11,5.07-4.78,6.51-4.85a3.55,3.55,0,0,1,2.74,1.26c-.82,1.71-1.9,3.31-2.7,5a9.17,9.17,0,0,0-.84,6.1,1,1,0,0,0,.28.53c.46.39,1.13-.41,1.39-.71a14.9,14.9,0,0,0,1.84-2.91c.78-1.47,1.4-3,2-4.56,0-.11.09-.21.13-.31a24.09,24.09,0,0,1,2.68,10c.4,6.52-1.74,13.65-6.37,21.32-1.41,2.79-2,4.46-2,5-.08,3,4.37,2.5,6.22,2.14,3.8-.69,7.28-3,10.75-4.64.87-.4,2.46-.69,2.68.36a2.41,2.41,0,0,1-.14.95,37.28,37.28,0,0,1-1.45,3.91A46.87,46.87,0,0,1,689.41,441a60.44,60.44,0,0,1-8.31,6.32l-.38-.1h0c-1.79.3-3.41-1.63-5.25-.67l.14-.31a5,5,0,0,0-3.52.92,7.58,7.58,0,0,0-.46,3.87l0,.14c.25.4.5.79.76,1.17-.91.48-1.81,1-2.74,1.4-2.64,1.16-5.54,2.53-8.54,1.92a10.3,10.3,0,0,1-4.42-3.51,18.86,18.86,0,0,1-2.66-5.24c.47-.25.94-.49,1.42-.7.79-.35,1.75-.33,1.57-1.43-.39-2.37.43-4.57,1.3-6.74a40.35,40.35,0,0,0,2.54-6.72,3.54,3.54,0,0,0-.19-2.4,1.57,1.57,0,0,0-1.76-.9c-.63.25-.95,1.07-1.29,1.59-.63,1-1.21,2-1.76,3-1.1,2-2.12,4.11-3.17,6.17C652.53,432,654.38,424.13,658.43,415.31ZM253.76,580.41a63.54,63.54,0,0,1-8.94,13.14,180,180,0,0,1-27.69,25.74,221.26,221.26,0,0,1-32.76,21c-11.08,5.72-20.67,9.16-28.93,10.28a86.1,86.1,0,0,1-18.77.61c.35-4.18-.87-8.59-2.13-12.51-.81-2.53-1.24-5.25-2.73-7.52-.36-.56-.79-1-1.13-1.08s-.53.23-.59,1a55.67,55.67,0,0,0,.27,14,15.91,15.91,0,0,0,2.15,5.74,45.55,45.55,0,0,1-13.45-3.58c-4.16-2-6.47-4.41-6.91-7.35a13.19,13.19,0,0,1,1.16-7.85c1.19-2.57,3.58-5.9,7.24-10a3.42,3.42,0,0,0-.62-.43,21.64,21.64,0,0,1-6.84,2.35c-4.85.73-9,0-12.45-2.32s-5.58-5.79-6.34-10.53c-.39-2.68-.14-9.08.84-19.26s2.35-20.74,4.2-31.71c1.84-10.27,3.21-17.85,4.64-25.56.73,4.26,1,8.6,1.77,12.85.88,4.83,2.08,10,5.81,13.57a1.79,1.79,0,0,0,.67.46c1.22.4,1.51-1.83,1.75-2.55,1.39-4.24.19-7.91-2.23-11.5-2.13-3.18-4.52-6.29-4.31-10.31a6.88,6.88,0,0,1,.13-.77c0-.78.09-1.56.07-2.35a31.77,31.77,0,0,0-1.56-9.86l-.1-.27c.73-3.84,1.51-8,2.41-12.68A169.3,169.3,0,0,1,116.2,485a16.41,16.41,0,0,0-3,1.88c-6,3.33-10.42,5.21-13.1,5.61-3.84.58-5.94-.47-6.34-3.15s.44-7.17,2.61-13,4.6-10.24,7.2-13.36q6.92-7.83,20.57-14.35c1.26,2.75,3.34,5,6.65,3.31a26.41,26.41,0,0,0,4.8-3.77c1.42-1.23,3.42-1.91,4.49-3.51a4,4,0,0,0,.68-2.58,202.08,202.08,0,0,1,39.05-8.38,147.76,147.76,0,0,1,29.06-.83,75.72,75.72,0,0,1,22.7,5,47.63,47.63,0,0,1,6.23,3.12,2.53,2.53,0,0,0-.88,2.15c.07.56.33,1.07.45,1.61.61,2.55,0,6.5,3.74,6.48a12.25,12.25,0,0,0,6.22-1.9,26.51,26.51,0,0,1,5.38,13.88,42,42,0,0,1-3.26,21.61c-3,6.48-8,12.85-14.95,19-7.78,6.77-15.31,11.51-22.51,14.26a28.27,28.27,0,0,1-4.2,1.23c0,.29,0,.4.07.69,26.72.17,43.15,7.68,49.37,22,0,0-.06.06-.08.11-.53.81.1,1.81-.51,2.62-.21.61-.55,1.11-.69,1.68-.56.76-1,3.1-2.34,2.33-.36-.2-.79.12-1.07.42a8.7,8.7,0,0,0-2.65,4.07c-.13.69-.78,1.12-1.28,1.61-1.44,1.42-1.9,3.82-3.73,4.68-1.35.63-2.16.73-3.07,2.08-1.64,2.42-3.83,5.47-5.07,7.62-.7.77,0,1.84-.7,2.59L236,572c-.62.85-5.16,3.57-3.39,4.9a1.7,1.7,0,0,0,1.79,0,14.36,14.36,0,0,0,1.52-1.11c1.78-1.27,4.31-1.43,5.73-3.11.83-1,1.12-1.77,2.31-2.38.88-.44,2-.65,2.51-1.6.3-.54.29-1.22.64-1.74.53-.8,1.67-.93,2.39-1.57s.92-1.73,1.55-2.49a5.35,5.35,0,0,1,1.87-1.25c1.08-.51,2.18-1.31,3.44-1.15s2.17,1.1,3.42.37a50.08,50.08,0,0,1-.86,5.36A59.55,59.55,0,0,1,253.76,580.41Zm150.08,14.15a34.26,34.26,0,0,1-14.8,4.35c-13.72.69-21.25-10.1-22.59-32.58-.11-2.32-.11-4.16,0-5.61v-.07a1.79,1.79,0,0,0-.29-.18l-.29-.26a281.29,281.29,0,0,1-21.5,24.73,107.31,107.31,0,0,1-18.28,14.95q-8.42,5.26-15.78,5.82a41.4,41.4,0,0,1-4.7.11v-.12a7.77,7.77,0,0,0-.18-1.57,3,3,0,0,0-.58-1.15,7.07,7.07,0,0,0-5.06-2.85,9.24,9.24,0,0,0-7,2.9,33.75,33.75,0,0,1-8.06-5c-7.06-5.93-11.11-13.9-12-23.85-.58-6.16.4-13.65,2.9-22.37A111.13,111.13,0,0,1,287,525.9a122.81,122.81,0,0,1,12.87-17.47,12.48,12.48,0,0,0,1.66,1,5.67,5.67,0,0,0,2,.64,2.37,2.37,0,0,0,.71,0,8.18,8.18,0,0,0,2.59-1.12,6.31,6.31,0,0,0,2.68-3.07,11.84,11.84,0,0,0,.43-4.82,4.41,4.41,0,0,0-.5-2.33,132.71,132.71,0,0,1,11.42-9.33c10.28-7.51,20.54-12.54,30.7-15.14h0l11.15,1.63c3,1.39,5.84,2,7.49-1-.32-.69-.06-1.21.77-1.54a2.2,2.2,0,0,0,1.06-1.15c8.46.36,15.76,2.16,21.81,5.38,7.9,4.24,11.95,9.85,12.24,16.83q.33,7.71-5,16.62c5-.29,8.11.14,9.49,1.05s2.1,3.26,2.24,6.84a42,42,0,0,0-.5,5.47c-.06,1.15-.07,2.3-.11,3.45a3,3,0,0,0-.58.13c-1.83.59-3.23,2.33-2.52,4.29.27.73.7,1.39,1,2.1a5.62,5.62,0,0,1-1.15,5.73c-.13.17-.27.34-.42.5-1.51,1.72-3.82,2.66-5,4.66s-1.53,4.92-.21,6.88,3.34,2,5.5,1.39a15.14,15.14,0,0,1,3.9-.81c.1,1.94.2,3.52.31,4.76.15,2,.44,4.27.76,6.92s.76,4.7,1.13,6.22a59.19,59.19,0,0,0,4,12C413.65,588,408.69,592,403.84,594.56Zm148.31-3.87a104.59,104.59,0,0,1-21.5,33.77,98.24,98.24,0,0,1-25.81,18.76q-13.86,7.14-24.23,8a7.4,7.4,0,0,0-3-4l.4.31a7.48,7.48,0,0,0-3.16-1.66l.45.21c-2.7-1.33-4.71-.56-6.14,2l.17-.19a4.08,4.08,0,0,1-1,1.09,26.8,26.8,0,0,1-6.37-4.6c-5-4.78-7.53-10.21-7.68-16.29a29,29,0,0,1,2.83-12.82,37.2,37.2,0,0,1,8-11.54q10.16-10.59,30.37-20.13a14.25,14.25,0,0,1,5.76-1.88,2.32,2.32,0,0,1,1.52.61,2,2,0,0,1,.61,1.49c.07.61-.47,1.77-1.52,3.51a70.63,70.63,0,0,0-6.91,17.16,63.25,63.25,0,0,0-2.83,18c.08,6,1,8.87,2.83,8.87,1.05,0,2.21-1.13,3.62-3.26a40.26,40.26,0,0,0,3.87-7.28c7.31-18.89,12.09-36.38,14.19-52.45.25-2.35.54-5.86.83-10.57-1.48,1-2.24,1.59-3.69,2.61-.25.29-.69.61-1.23,1.12s-1.34,1-2.21,1.66c-15.6,11.91-27.62,20.35-36.34,25.34s-16.33,7.53-22.84,7.75a22.38,22.38,0,0,1-17.74-7.2c-4.56-5-7.06-11.77-7.38-20.42a60.58,60.58,0,0,1,2.17-17.84,8.72,8.72,0,0,0,5-4.71c.56-1.76.48-5-1.06-6.45q1-2.28,2.17-4.59a118,118,0,0,1,20.31-28.26,29.52,29.52,0,0,0,8.78-.31,8,8,0,0,0,2.85-.83c3-1.7,2.55-7.2,3.42-10.06.31-1,.7-2,1-3A126.47,126.47,0,0,1,493,479q18.9-8.85,36.67-8.87c11.69,0,20.56,2,26.64,5.76s9,9.48,8.94,16.94c-.07,6.3-2.86,14-8.18,23.2,3.8.33,6.52,1.45,8.25,3.44s2.54,5.07,2.47,9.27a87,87,0,0,1-1.41,12.95,13.53,13.53,0,0,1-1.61-.82,11.55,11.55,0,0,1-3-2.57,20.17,20.17,0,0,0-1.65-2,3.2,3.2,0,0,0-5.43,1.37c-1.35,4.53,1.08,9.76,4.65,12.55a13.64,13.64,0,0,1,1.94,1.6,3,3,0,0,1,.89,2.28c-.15,1.27-1.4,2.2-2.05,3.25a10.83,10.83,0,0,0-1.34,3.1c-.51,2.09-.09,4.24,1.91,5.27C558.15,574.56,555.26,582.91,552.15,590.69Zm154.06,6.92a34.09,34.09,0,0,1-15.2,2.64c-13.72-.76-20-12.42-18.83-34.83a46,46,0,0,1,.55-5.61c-.22-.21-.29-.36-.47-.54a281,281,0,0,1-24.18,22.19,106,106,0,0,1-19.77,12.89c-6,2.82-11.37,4.23-16.29,4.09-1.06,0-2.09-.13-3.11-.24a7,7,0,0,0-3.35-7.15,9.28,9.28,0,0,0-5.13-1.12,24.42,24.42,0,0,0-5.21,1,4.79,4.79,0,0,0-2.26,1,1.27,1.27,0,0,0-.31.44,33.65,33.65,0,0,1-5.14-4.4c-6.4-6.7-9.52-15.1-9.41-25.05.15-6.23,1.88-13.51,5.36-21.87a111,111,0,0,1,14.12-24.58,121.81,121.81,0,0,1,19.4-20c-.87,1.15-1.75,2.31-2.58,3.49a37.12,37.12,0,0,0-3.71,6.2,13,13,0,0,0-1.05,3.55c-.08.67-.44,2.37.16,2.85,1.15.91,4.05-1.91,4.72-2.7a11.22,11.22,0,0,0,2.42-5.1c.53-2.74.7-6.87,3.29-8.63a22.17,22.17,0,0,0,5.42-6.21c3.08-2.12,6.25-4.16,9.57-6.06,15.57-8.91,30.59-13,44.78-12.24,2.38.13,4.65.37,6.85.67,0,.41,0,.83,0,1.24l0,.19c2.32,3.78,4.89,7.22,10,7.15l-.85-.06c2.52.64,3.84-2.23,6.3-1.79l.27-.11a7.52,7.52,0,0,0,2.18-1.21,43,43,0,0,1,4.29,2.5q11,7.6,10.32,18.06-.55,7.73-6.81,15.93c5,.36,8.11,1,9.31,2.14s1.7,3.47,1.44,7c0,0-.5,1.88-1.05,5.39-1,6.66-1.64,13.27-2.13,19.49a21.91,21.91,0,0,0-2.24.77L715,554a19.3,19.3,0,0,1-3.63,1.51l-.8.13-.52-.62c-3.82-.52-4.67,1.32-3.89,4.49,2.92,3.76,6.52,6,11.5,5l-.68.11a11.3,11.3,0,0,0,2.34-.48c0,1.39,0,2.88.07,4.5.14,2.61.21,4.71.4,6.3a61.62,61.62,0,0,0,2.64,12.38A63.8,63.8,0,0,1,706.21,597.61ZM867,526a135,135,0,0,1-2.9,14.81,212.06,212.06,0,0,0-4.56,24.47c-.1.83-.19,1.62-.28,2.42a3.48,3.48,0,0,0-3.54,2.27c-2,4.23-9,6.92-4.32,13.15,1.88,2.53,4.46,2.44,6.87,1.29,0,.72,0,1.41.07,2.08A77,77,0,0,0,860,596.7a22.78,22.78,0,0,1,.54,6.52,3.75,3.75,0,0,1-2,3.07,39.21,39.21,0,0,1-11.65,4.82c-4.75,1.19-8.66,1.63-11.77,1.26a21.51,21.51,0,0,1-13.25-6.58,33,33,0,0,1-8.18-15.06,57.55,57.55,0,0,1-1.34-20.67,113.21,113.21,0,0,1,3.48-17.63c-.22-.25-.33-.36-.51-.58q-6.51,5.64-10.46,8.91c-2.64,2.2-5.11,4.27-7.39,6.26-11,9.9-20.26,19-27.92,27.2a5.59,5.59,0,0,0-2.75-1.43l.57.29c-2.32-1-3.83.08-5,2l-.11.23c-.16,2.11-2.57,2.8-3.2,4.6l-.1.19a14.62,14.62,0,0,1-.89,3.36v.08a14,14,0,0,0,.1,1.64,15.4,15.4,0,0,1-8.83,1.89A17.43,17.43,0,0,1,736,599.74c-3.26-4.42-4.67-10-4.17-16.58a94.19,94.19,0,0,1,2.57-14.88c.33-1.29.67-2.62,1-4h.49a1.69,1.69,0,0,1,.29-1.41,2.13,2.13,0,0,0,.14-1.9c.17-.6.33-1.19.51-1.8l.8-.5c.58-.8,1.77-.87,2.28-1.77s.07-1.81.72-2.57c.22-.58.62-1,.8-1.56.62-.65,1.27-3.11,2.53-2.21.37.22.8-.07,1.13-.32A8.58,8.58,0,0,0,748,546.4c.18-.65.87-1,1.41-1.48,1.56-1.3,2.17-3.69,4.09-4.38,1.38-.54,2.21-.58,3.22-1.85,1.81-2.28,4.24-5.17,5.65-7.2.72-.73.11-1.85.87-2.54l.07-.1c.69-.8,5.43-3.15,3.77-4.64a1.81,1.81,0,0,0-1.78-.14,12.26,12.26,0,0,0-1.59,1c-1.88,1.12-4.42,1.09-6,2.64-.91.95-1.27,1.71-2.5,2.21-.91.36-2,.51-2.61,1.41-.36.51-.4,1.2-.76,1.67-.61.76-1.74.8-2.53,1.37s-1.05,1.67-1.74,2.39a4.63,4.63,0,0,1-2,1.09c-.64.25-1.28.58-1.94.77q1.74-4.64,3.71-9.37c2.9-7,6.12-13.54,9.27-19.73,5.14-10.13,11-18.24,17.63-23.71a21.46,21.46,0,0,1,15.71-4.52c7,.65,11.13,4.13,12.49,10.37a7.07,7.07,0,0,0-1,1.33l-.11.23c-.17,2.11-2.57,2.8-3.2,4.61l-.1.19a14.9,14.9,0,0,1-.89,3.36v.07c0,3.75,1.39,6.12,4.4,6.85a235.09,235.09,0,0,1-8,28.34,6,6,0,0,1,.51.58c3.65-3.37,5.46-5,9.12-8.37,9.23-8,16.58-13.82,22-17.59a61.56,61.56,0,0,1,14.26-7.89,27.6,27.6,0,0,1,9.3-1.69,3,3,0,0,0,.28.33,20,20,0,0,0,2,1.46c1,.8,1.85,2,3.19,2.32a3.45,3.45,0,0,0,3-.75,2.73,2.73,0,0,0,1.09-1.72,12.92,12.92,0,0,1,6.7,5Q868.47,513.8,867,526Zm53.93,59.59a34,34,0,0,1-4,10.75,63.67,63.67,0,0,1-7.46,11.15,17.37,17.37,0,0,1-5,3.94,4.27,4.27,0,0,0-.38-.22,1,1,0,0,1-1.31-.58,1.62,1.62,0,0,0-2.41-.48l-3.72.07c-2.25.61-4.77.19-6.71,2l.57-.28c-2.06,1.2-2.2,2.92-1.48,4.88a26,26,0,0,1-7.28.15,12.39,12.39,0,0,1-7.89-3.84,9.51,9.51,0,0,1-2.28-7.74q.79-6.27,7.32-14.92a5.37,5.37,0,0,0,.75-.13c1.59-.44,5.77-1.58,6.34-3.33.37-1.15-.67-2.2-1.8-2.88a22.92,22.92,0,0,1,2.7-2.38,31.09,31.09,0,0,1,11.08-5,32.52,32.52,0,0,1,12.23-.87,15.08,15.08,0,0,1,8.33,3.43A6.78,6.78,0,0,1,920.94,585.59Zm63.39-121.41c-.73,4.67-9.81,20.74-26.79,48-17.3,27.76-27.08,43-29.43,45.39a35,35,0,0,1-9.19,6.33A67.89,67.89,0,0,1,907,568.61c-3.91,1.12-7,1.56-9.27,1.27-6.11-.84-8.83-4.13-8.07-9.92a45.27,45.27,0,0,1,2.61-8.36q2.52-6.55,5.05-12.8c3.2-2.24,6.56-3.5,10.1-2.69,2.86-9.93,14.11-14.28,17.68-23.73-9.82,2.35-8.71,12-21.84,12.15a508.05,508.05,0,0,1,24.09-49.24c0-.05.05-.1.08-.16a11,11,0,0,0,2,0l6.84-3.32c2.31-.24,4.14-.9,3.59-3.73a1,1,0,0,1-.32-1.4,1.62,1.62,0,0,0-1-2.22l-1.1-1.42q5.88-4,16.52-6a64.75,64.75,0,0,1,21.71-.47C982.08,457.59,985,460.12,984.33,464.18Z"></path><path d="M367.71,529.44c-3.47,1.63-6.91,3.95-10.71,4.64-1.88.32-6.3.83-6.26-2.18,0-.54.58-2.2,1.95-4.95,4.64-7.68,6.77-14.81,6.37-21.33a24.1,24.1,0,0,0-2.71-10.1c-1.52-3-3.26-4.52-4.85-4.38s-3.66,1.74-6.48,4.86a118.64,118.64,0,0,0-18.5,28.45c-4.34,9.55-6.23,18-5.68,25.19.43,4.78,1.73,8.65,3.94,11.62a10.73,10.73,0,0,0,4.45,3.55c3,.61,5.87-.76,8.51-2s5.25-2.71,7.82-4.16a68,68,0,0,0,12-8.58,45.71,45.71,0,0,0,11.26-15.49,34.69,34.69,0,0,0,1.48-3.87,2.18,2.18,0,0,0,.11-1C370.21,528.72,368.62,529,367.71,529.44Z"></path><path d="M166.09,477.36l.39.21c-2.93,16.23-4.94,27.62-8.22,46.79a19.41,19.41,0,0,0,3.33-.18c4.85-.61,10.17-3.47,16.07-8.47,7.38-6.26,13-12.67,16.79-19.22s5.33-12.67,4.67-18.39c-1.32-11.75-8.65-16.93-21.88-15.46a7.35,7.35,0,0,0-4.62-1.58,4.59,4.59,0,0,0-4.46,2.35,53.07,53.07,0,0,0-3.92,6.41C162.75,472.89,163,475.63,166.09,477.36Z"></path><path d="M706.18,559.62s0,0,0-.07l0-.06Z"></path><path d="M675.67,446.06l-.08.19a4.3,4.3,0,0,1,.61.05Z"></path><path d="M671.89,447.29c.06-.05.13-.07.18-.12a.94.94,0,0,0,.06-.15Z"></path><path d="M158.47,482.18c.68.54,1.63,1.26,2.44.61a2.21,2.21,0,0,0,.76-2.09c-.52-1.81-2.18-1-3.19-.14a1.55,1.55,0,0,0-.44.52A1,1,0,0,0,158.47,482.18Z"></path><path d="M206.59,599.57c-.7-.51-1.69,0-2.51.51a13.2,13.2,0,0,0-2.63,1.71,3.35,3.35,0,0,0-.61,3.47c.35.94,1.29,2.94,2.49,3a1.6,1.6,0,0,0,1.09-.48c2-1.62,3.78-4.87,2.74-7.47A1.82,1.82,0,0,0,206.59,599.57Z"></path><path d="M167.15,632.89c-1.47-.66-4,1.2-5.1,2a8.72,8.72,0,0,0-2.36,2.21c-1.16,1.72-.77,4.63.33,6.29a3,3,0,0,0,2,1.38c2.67.45,6.17-2.66,6.9-4.92C169.58,637.82,169.38,633.88,167.15,632.89Z"></path><path d="M391.26,497.42c2.67.45,6.17-2.66,6.9-4.92.64-2,.45-5.94-1.78-6.93-1.47-.66-4,1.2-5.1,2a8.58,8.58,0,0,0-2.36,2.21c-1.16,1.72-.77,4.63.33,6.29A3,3,0,0,0,391.26,497.42Z"></path><path d="M153.49,473.68c.88.4,2.48-.86,3.1-1.34,1.3-1,1.49-2.68,1.35-4.25s-1.34-2.06-2.7-1.42a8.73,8.73,0,0,0-2.42,1.46c-1.39,1.33-1,3.43,0,4.88A1.77,1.77,0,0,0,153.49,473.68Z"></path><path d="M240.1,466.63c1.66-.58,3.23-1.83,2.47-3.76-.41-1-1.93-1.61-2.95-1.78a3,3,0,0,0-2.88,1.21,4.3,4.3,0,0,0-1.17,2.57,1.75,1.75,0,0,0,.66,1.27A4,4,0,0,0,240.1,466.63Z"></path><path d="M245.27,579.9c-1.42-1.12-3.86-2.38-5.28-.6-1.07,1.34-1.4,5.49.67,6.22a2.38,2.38,0,0,0,1.27,0,8.88,8.88,0,0,0,3.64-2.07,2.26,2.26,0,0,0,.8-1.91A2.9,2.9,0,0,0,245.27,579.9Z"></path><path d="M345.47,571.55c-1.42-1.12-3.86-2.38-5.28-.59-1.07,1.34-1.4,5.49.67,6.21a2.38,2.38,0,0,0,1.27,0,8.76,8.76,0,0,0,3.64-2.07,2.21,2.21,0,0,0,.8-1.9A2.89,2.89,0,0,0,345.47,571.55Z"></path><path d="M906.79,600.85c-1.46-.91-5.61-.78-6.11,1.36a2.36,2.36,0,0,0,.14,1.26,8.88,8.88,0,0,0,2.46,3.39,2.24,2.24,0,0,0,2,.58,3,3,0,0,0,1.53-1.28C907.74,604.63,908.72,602.06,906.79,600.85Z"></path><path d="M473.58,612.46c-1.41-1.11-3.86-2.37-5.28-.59-1.07,1.34-1.4,5.49.68,6.22a2.25,2.25,0,0,0,1.26,0,8.74,8.74,0,0,0,3.65-2.07,2.2,2.2,0,0,0,.79-1.9A2.92,2.92,0,0,0,473.58,612.46Z"></path><path d="M741.58,578.27c-1.41-1.12-3.86-2.38-5.28-.59-1.07,1.34-1.4,5.49.67,6.21a2.38,2.38,0,0,0,1.27,0,8.85,8.85,0,0,0,3.65-2.07,2.23,2.23,0,0,0,.79-1.9A2.89,2.89,0,0,0,741.58,578.27Z"></path><path d="M975.71,466.32c-1.41-1.11-3.85-2.37-5.27-.59-1.07,1.34-1.4,5.49.67,6.22a2.29,2.29,0,0,0,1.27,0,8.65,8.65,0,0,0,3.64-2.07,2.24,2.24,0,0,0,.8-1.9A2.89,2.89,0,0,0,975.71,466.32Z"></path><path d="M690.91,587.24c-1-.65-2.41-.5-3.56-1a6.39,6.39,0,0,0-1.1-.42c-1.18-.22-1.88,1.43-2.32,2.27a4,4,0,0,0,.13,4,6.49,6.49,0,0,0,4.32,3,3.57,3.57,0,0,0,2.48-.75,5,5,0,0,0,1.69-2.28.85.85,0,0,0,0-.22,6.76,6.76,0,0,0-.25-2.53A3.51,3.51,0,0,0,690.91,587.24Z"></path><path d="M592.63,545a4.67,4.67,0,0,0-4.31-.62c-1.5.51-3.25,1.45-3.42,3.21a3.5,3.5,0,0,0,.67,2.38,8.06,8.06,0,0,0,2.88,2.4,3.41,3.41,0,0,0,1.23.39,1.29,1.29,0,0,0,.44,0,5,5,0,0,0,1.6-.69,3.93,3.93,0,0,0,1.67-1.91,7.35,7.35,0,0,0,.27-3A2.18,2.18,0,0,0,592.63,545Z"></path><path d="M776.48,544.23a4.64,4.64,0,0,0-4.31-.62c-1.5.51-3.25,1.44-3.42,3.21a3.5,3.5,0,0,0,.67,2.38,8.22,8.22,0,0,0,2.87,2.4,3.53,3.53,0,0,0,1.24.39,1.61,1.61,0,0,0,.44,0,5.2,5.2,0,0,0,1.6-.7,3.89,3.89,0,0,0,1.67-1.91,7.5,7.5,0,0,0,.27-3A2.16,2.16,0,0,0,776.48,544.23Z"></path><path d="M624.44,499.68a2.32,2.32,0,0,0-1.16-.38,2.78,2.78,0,0,0-2.44,1.79,3.31,3.31,0,0,0,.17,1.12c.15.68.11,1.4.23,2.09a3.29,3.29,0,0,0,.19.7,2.12,2.12,0,0,0,.44.66,2.16,2.16,0,0,0,1.53.51c.72,0,2-.19,2.3-1a1.94,1.94,0,0,0,.07-.64c0-.83,0-1.65,0-2.48A2.47,2.47,0,0,0,624.44,499.68Z"></path><path d="M795,491.45a1.59,1.59,0,0,0,.07-.65c0-.83,0-1.65,0-2.48A2.45,2.45,0,0,0,793.7,486a2.38,2.38,0,0,0-1.15-.38c-.88,0-2.32.86-2.45,1.79a3.31,3.31,0,0,0,.17,1.12c.16.69.12,1.4.23,2.09a2.81,2.81,0,0,0,.2.7,1.84,1.84,0,0,0,.43.66,2.16,2.16,0,0,0,1.53.51C793.39,492.42,794.67,492.25,795,491.45Z"></path><path d="M688.08,584.05a6.33,6.33,0,0,0,1.49.23,1.47,1.47,0,0,0,1.08-.42c.91-1-.14-2.25-.84-3a2,2,0,0,0-.58-.45c-.72-.31-1.76.61-2,1.24s-.3,1.64.24,2.11A1.36,1.36,0,0,0,688.08,584.05Z"></path><path d="M771,534c.91-1-.14-2.25-.84-3a2.1,2.1,0,0,0-.58-.46c-.72-.3-1.76.62-2,1.25a2.12,2.12,0,0,0,.24,2.11,1.36,1.36,0,0,0,.59.25,6.33,6.33,0,0,0,1.49.23A1.51,1.51,0,0,0,771,534Z"></path><path d="M921.21,552.21c-.72-.3-1.76.62-2,1.25a2.12,2.12,0,0,0,.24,2.11,1.36,1.36,0,0,0,.59.25,6.33,6.33,0,0,0,1.49.23,1.51,1.51,0,0,0,1.08-.42c.91-1-.14-2.25-.84-3A2.1,2.1,0,0,0,921.21,552.21Z"></path><path d="M685.35,515.93a2.31,2.31,0,0,0-2.22-1.67,3.61,3.61,0,0,0-2.82,1.1,5.82,5.82,0,0,0-1.46,2.72,1.86,1.86,0,0,0-.08.77C679.27,522,686.51,520,685.35,515.93Z"></path><path d="M685.35,437.33a2.33,2.33,0,0,0-2.22-1.67,3.64,3.64,0,0,0-2.82,1.1,5.91,5.91,0,0,0-1.46,2.73,1.83,1.83,0,0,0-.08.77C679.27,443.44,686.51,441.42,685.35,437.33Z"></path><path d="M238.73,555.44c2.32-.07,4.49-2.06,5.82-3.79.61-.81,2.15-3.58.57-4.28-3.16-1.4-6.16.14-8.42,2.4a6.17,6.17,0,0,0-1.3,1.63,2.27,2.27,0,0,0,0,2A3.64,3.64,0,0,0,238.73,555.44Z"></path><path d="M157.8,630.21a1.82,1.82,0,0,0-1.35-.1c-1.57.46-3.12,2.93-1.67,4.28,1.13,1.07,3.52.14,4.15-1.17A2.74,2.74,0,0,0,157.8,630.21Z"></path><path d="M228.49,473.82a5.76,5.76,0,0,0,3.49.68c2.35-.36,3.35-2.35,2.74-4.53-.47-1.7-2.19-6.53-4.5-6.92a2.09,2.09,0,0,0-1.7.53C225.61,465.93,224.84,471.93,228.49,473.82Z"></path><path d="M385.2,588c-1.08-.28-2.45.62-3.19,1.35a3,3,0,0,0-.72,3.06,4.24,4.24,0,0,0,1.39,2.46,1.76,1.76,0,0,0,1.42.23,4,4,0,0,0,2.69-2.86C387.31,590.5,387.23,588.48,385.2,588Z"></path><path d="M528,598.09c-1.08-.28-2.45.62-3.19,1.35a3,3,0,0,0-.73,3,4.3,4.3,0,0,0,1.4,2.47,1.72,1.72,0,0,0,1.42.22,4,4,0,0,0,2.69-2.85C530.08,600.63,530,598.62,528,598.09Z"></path><path d="M397,584.9c-1.65-.62-6.57-2.08-8.25-.44a2.1,2.1,0,0,0-.57,1.68c.19,3.74,4.58,7.9,8.25,6.06a5.83,5.83,0,0,0,2.62-2.41C400.12,587.67,399.1,585.69,397,584.9Z"></path><path d="M523.86,587.9a5.82,5.82,0,0,0-2.9-2.06c-2.3-.64-4,.77-4.37,3-.26,1.74-.69,6.85,1.27,8.16a2.09,2.09,0,0,0,1.76.21C523.25,596.27,526.41,591.12,523.86,587.9Z"></path><path d="M716.65,527a5.83,5.83,0,0,0,2.62-2.41c1.09-2.12.07-4.1-2-4.89-1.65-.62-6.57-2.08-8.25-.44a2.1,2.1,0,0,0-.57,1.68C708.59,524.63,713,528.79,716.65,527Z"></path><path d="M175.16,533.23c.28,1.52,1.46,1.94,2.87,1.72,1.64-.24,5.93-.88,6.69-2.54s-1.69-3.51-3-4C178.07,527.2,174.36,528.86,175.16,533.23Z"></path><path d="M311.7,550.85c-3.66-1.25-7.36.41-6.57,4.77.28,1.53,1.46,1.94,2.87,1.73,1.64-.24,5.93-.88,6.7-2.54S313,551.3,311.7,550.85Z"></path><path d="M473,532.73c-2.7,2.78-2.77,6.84,1.51,8,1.5.4,2.38-.49,2.79-1.86.48-1.59,1.73-5.73.55-7.14S473.94,531.75,473,532.73Z"></path><path d="M844.4,526.78c-3.78-.81-7.26,1.28-5.95,5.52.46,1.48,1.68,1.75,3.06,1.38,1.6-.44,5.77-1.58,6.34-3.33S845.75,527.07,844.4,526.78Z"></path><path d="M452,586.4c-1.52-.67-5.47-2.43-7-1.44s-.46,3.87.4,4.95c2.41,3,6.43,3.6,8.1-.51C454,588,453.25,587,452,586.4Z"></path><path d="M114,568.69a6.56,6.56,0,0,0-.56,1.41,16.73,16.73,0,0,0-.29,2.24,1.81,1.81,0,0,0,.42,1.46c1,1,2.15-.74,2.47-1.5a9,9,0,0,0,.75-3C116.84,566.76,115,566.68,114,568.69Z"></path><path d="M124.5,617.94c-.56,1.63,1.33,4.15,3,1C128,617.27,126.14,614.76,124.5,617.94Z"></path><path d="M125,605.93c.49-.88-1.71-2.32-2-3.31a12.34,12.34,0,0,1-.18-3.74c0-1.78-.13-3.62-1.52-4.92a2.32,2.32,0,0,0-1.43-.72,1.39,1.39,0,0,0-.63.11c-1.41.64-1,3.86-.86,5a13.51,13.51,0,0,0,1.83,5.71,5.58,5.58,0,0,0,3,2.48A1.57,1.57,0,0,0,125,605.93Z"></path><path d="M682.1,398.6c.29-.92-2.82-2.73-3.32-1C678.49,398.51,681.6,400.32,682.1,398.6Z"></path><path d="M606.58,517.43c-2.33,1.14-4.94,4-1,3.33C607.94,519.61,610.53,516.79,606.58,517.43Z"></path><path d="M664.26,424.68a1.08,1.08,0,0,0,.72-.24c.4-.37-.09-1.53.17-2.13a4.34,4.34,0,0,1,1.39-1.53c1-.81,2.62-1.59,3-3,.13-.5.08-.9-.18-1.09a.93.93,0,0,0-.84-.06,9.17,9.17,0,0,0-5.51,5c-.35.77-.61,2.08.19,2.67A1.71,1.71,0,0,0,664.26,424.68Z"></path><path d="M958.67,480.35c-2.58.43-5.87,2.39-1.9,2.91C959.33,482.84,962.64,480.87,958.67,480.35Z"></path><path d="M937.6,499.75c-4.47,1.43-14.68,9.49-7.64,11.64,4.65-10.13,19.83-13.29,22.48-24.74C941.48,487.06,944.19,496.48,937.6,499.75Z"></path><path d="M834.71,596a35.4,35.4,0,0,1-3.31-1.52c-1.7-1.1-9.26-13.38-11.43-6-1.27,4.32,6.9,10.53,9.83,12.13a7.17,7.17,0,0,0,4.35,1.12,3.12,3.12,0,0,0,2.8-3.06A3.69,3.69,0,0,0,834.71,596Z"></path><path d="M853.24,562.94a3.93,3.93,0,0,0-4.27,5.61l.38.38c.19,1.4,2.21,1.83,3.37,1a6,6,0,0,0,2-3.62,3.11,3.11,0,0,0-.17-2.71A2.25,2.25,0,0,0,853.24,562.94Z"></path><path d="M634.66,649.54a4.1,4.1,0,0,0-3.86-2.81,2.94,2.94,0,0,0-1.79.51,3.41,3.41,0,0,0-1.1,1.48c-.4,1-.91,2.23-1.52,3.6s-1.31,2.91-2.1,4.62q-2.31,5.12-3.94,8.25-1,1.95-2.05,4.19a58,58,0,0,1-2.75,5.12q-1.26,2.12-2.88,4.55c-1.09,1.63-2.19,3.27-3.32,4.92s-2.21,3.3-3.27,4.92a46.47,46.47,0,0,0-2.68,4.64q-2.11-4.44-4.17-10t-4.65-12.08c-.66-1.63-1.26-3.28-1.83-5s-1.16-3.24-1.75-4.67q-1-2.45-2-4.82c-.66-1.59-1.27-3.09-1.85-4.49l-1.4-3.34c-.39-.95-.72-1.77-1-2.48s-.55-1.41-.76-1.87a4.5,4.5,0,0,0-.38-.77,7.17,7.17,0,0,0-4-1.67q-3,0-4.47,3.17a24.92,24.92,0,0,0,1.95,7q1.26,2.81,2.81,6.34t3.37,7.93,2.77,7q1.29,3.33,2.7,6.69t2.74,6.56c.41,1,.84,2,1.29,3s.9,2,1.36,3,.9,1.9,1.34,2.78l1.18,2.42a23.36,23.36,0,0,0,2.32,3.82,4.28,4.28,0,0,0,2,1.67,16.62,16.62,0,0,0,2.88.53,34.21,34.21,0,0,0,3.5.16,23.4,23.4,0,0,1,1.77-5.1,53.09,53.09,0,0,1,2.62-4.82c.49-.78,1.07-1.68,1.75-2.7s1.41-2.09,2.2-3.23l2.48-3.52c.78-1.12,1.55-2.26,2.31-3.39l3.11-4.52c1-1.43,2-3,3.11-4.75s2.24-3.63,3.22-5.37q5.45-10,5.44-13.29c0-.6,0-1.28-.08-2A6,6,0,0,0,634.66,649.54Z"></path><path d="M708.78,661.71a9,9,0,0,0-2.73-1.24,11.33,11.33,0,0,0-3-.4,12.94,12.94,0,0,0-5.13,1.14,27,27,0,0,0-5.12,2.9,36.7,36.7,0,0,0-4.61,3.9,38.08,38.08,0,0,0-3.6,4.09q-1.36,1.83-2.81,4.14l-.16.13-2.15,2.15q-2.61,2.61-5.39,5.11a68.9,68.9,0,0,1-5.79,4.65,34.65,34.65,0,0,1-3.79,2.34,37.32,37.32,0,0,1-4.26,2,31.88,31.88,0,0,1-4.44,1.36,19,19,0,0,1-4.22.51,9.37,9.37,0,0,1-2.77-.38,6.74,6.74,0,0,1-2.09-1.06,5,5,0,0,1-1.38-1.57,4.44,4.44,0,0,1-.59-1.91c1.67-1.27,3.19-2.42,4.55-3.43s2.55-2,3.58-2.83a42.66,42.66,0,0,0,7.44-7.95,13.3,13.3,0,0,0,2.68-7.5,13.75,13.75,0,0,0-.49-3.72,9.37,9.37,0,0,0-1.5-3.13,7.45,7.45,0,0,0-2.58-2.17,8,8,0,0,0-3.72-.82,10.11,10.11,0,0,0-3,.45,15.42,15.42,0,0,0-2.85,1.18,17.59,17.59,0,0,0-2.56,1.67,14.58,14.58,0,0,0-2.09,2,33,33,0,0,0-4.11,5.61,33.94,33.94,0,0,0-2.7,5.87,33.5,33.5,0,0,0-1.49,6.06,44.5,44.5,0,0,0-.44,6.24q0,7.93,3.88,11.85t10.83,3.93a22.22,22.22,0,0,0,6.33-1,38.09,38.09,0,0,0,6.48-2.62,47.87,47.87,0,0,0,6.42-4,67,67,0,0,0,6.1-5c.18-.16.34-.33.52-.5a13.67,13.67,0,0,0-.19,2.25,10.31,10.31,0,0,0,.49,3.3,7.77,7.77,0,0,0,1.34,2.5,6.06,6.06,0,0,0,2,1.6,5.49,5.49,0,0,0,2.46.57,16.19,16.19,0,0,0,5-.83,28.42,28.42,0,0,0,5-2.2,33.53,33.53,0,0,0,4.67-3.15,42.36,42.36,0,0,0,4.11-3.7q-.24,2.77-.51,5.71c-.17,2-.38,3.75-.63,5.35s-.56,3.21-1,5a26,26,0,0,1-1.61,5,12,12,0,0,1-2.6,3.8,5.46,5.46,0,0,1-3.94,1.53,19.82,19.82,0,0,1-7.71-1.59,24.56,24.56,0,0,1-7.3-4.88,3,3,0,0,0-.48-.47c-.27-.23-.59-.47-.94-.73a11.4,11.4,0,0,0-1.07-.69,2.07,2.07,0,0,0-.92-.3,1.74,1.74,0,0,0-1.36.61,2.12,2.12,0,0,0-.55,1.5,3.82,3.82,0,0,0,.26,1.42,12.54,12.54,0,0,0,.76,1.51,21.18,21.18,0,0,0,5,5.53,26.75,26.75,0,0,0,3.13,2.21,26,26,0,0,0,3.57,1.81,23.89,23.89,0,0,0,3.82,1.22,17.23,17.23,0,0,0,3.87.45,13.41,13.41,0,0,0,5.49-1.06,13.72,13.72,0,0,0,4.2-2.86,18.35,18.35,0,0,0,3.1-4.15,34.05,34.05,0,0,0,2.19-4.92,45,45,0,0,0,1.49-5.2q.55-2.62.93-5c.16-1,.32-2.15.49-3.44s.32-2.6.46-3.94.29-2.66.41-4,.22-2.42.31-3.39q.32-3.95.5-7.22c.13-2.18.3-4.17.51-6v0c.06-.46.12-1,.19-1.5s.13-1.1.2-1.67.12-1.11.16-1.64.06-1,.06-1.45a5.39,5.39,0,0,0-.77-2.9A7,7,0,0,0,708.78,661.71Zm-62.84,13.75a25.69,25.69,0,0,1,2.54-5.25,13.12,13.12,0,0,1,3-3.35,5,5,0,0,1,2.95-1.18,1.38,1.38,0,0,1,.59,1,8,8,0,0,1,.18,1.71,8.53,8.53,0,0,1-1,4,17,17,0,0,1-2.57,3.59,32.32,32.32,0,0,1-3.49,3.28q-1.93,1.56-3.84,3A33.64,33.64,0,0,1,645.94,675.46Zm57-4.82c-.07.46-.12,1.15-.18,2.07-.14,1.74-.26,3.17-.38,4.31s-.26,2.13-.39,3a4.93,4.93,0,0,1-.57,1.77,11.1,11.1,0,0,1-1.12,1.7,14.9,14.9,0,0,1-1.26,1.41,7.7,7.7,0,0,1-1,.85c-.67.49-1.48,1.06-2.41,1.71s-1.92,1.27-2.93,1.85a24.8,24.8,0,0,1-3,1.48,7.26,7.26,0,0,1-2.73.61,2.23,2.23,0,0,1-1-.22.88.88,0,0,1-.45-.88,12.2,12.2,0,0,1,.69-3.67,26.34,26.34,0,0,1,1.87-4.33q1.1-2,2.54-4.19t3.09-4.15a40.75,40.75,0,0,1,3.46-3.7,27.82,27.82,0,0,1,3.64-2.93,5.43,5.43,0,0,1,1.54.23.9.9,0,0,1,.61.67,4.52,4.52,0,0,1,.13,1.3A8,8,0,0,1,702.94,670.64Z"></path><path d="M826.8,689.22a3.75,3.75,0,0,0-1.28.22,5.91,5.91,0,0,0-1.16.55,10.29,10.29,0,0,0-1.18.81c-1,.68-1.94,1.26-2.72,1.73a14.84,14.84,0,0,1-2.3,1.14,11.48,11.48,0,0,1-2.3.61,18.5,18.5,0,0,1-2.76.18,6.48,6.48,0,0,1-3.9-1.16,8.62,8.62,0,0,1-2.67-3.17A16.64,16.64,0,0,1,805,685.4a32.84,32.84,0,0,1-.49-5.86c0-.19,0-.59.1-1.22s.15-1.29.24-2,.18-1.36.25-2,.1-1,.1-1.16v-.65a6.19,6.19,0,0,0-.1-1.16,2.2,2.2,0,0,0-.45-1,2.37,2.37,0,0,0-1-.67,5.23,5.23,0,0,0-1.75-.24,10,10,0,0,0-3.5.59,12.08,12.08,0,0,0-3,1.63,20.31,20.31,0,0,0-2.74,2.41c-.88.93-1.78,1.9-2.7,2.93-.58.65-1.27,1.51-2.08,2.56s-1.65,2.17-2.52,3.34-1.73,2.31-2.6,3.43-1.63,2.07-2.28,2.83c.06-.46.16-1.11.33-1.93s.36-1.76.59-2.79.48-2.11.75-3.25.53-2.25.77-3.33c.41-1.87.72-3.37,1-4.5s.4-2,.51-2.62.17-1.15.2-1.59c0-.18,0-.39.06-.61s0-.46,0-.73a11.48,11.48,0,0,0-.1-1.44,2.8,2.8,0,0,0-.51-1.26,2.65,2.65,0,0,0-1.22-.87,6,6,0,0,0-2.2-.33,5.6,5.6,0,0,0-2.52.49,4.13,4.13,0,0,0-1.58,1.34,6.35,6.35,0,0,0-.94,2.05,21.5,21.5,0,0,0-.51,2.54l-.18.09a11.28,11.28,0,0,0-1.64,1.21,22.11,22.11,0,0,0-1.63,1.59c-.53.57-1,1.09-1.52,1.54-1.77,1.69-3.49,3.33-5.19,4.92a50.86,50.86,0,0,1-5.06,4.23c-.54.38-1,.73-1.44,1.06a10.72,10.72,0,0,1-1.24.83,5.68,5.68,0,0,1-1.28.53,6,6,0,0,1-1.53.18c-.46,0-.87-.33-1.24-1a10.56,10.56,0,0,1-.91-2.42,21,21,0,0,1-.55-3,26.19,26.19,0,0,1-.18-2.85,26.7,26.7,0,0,1,.24-3.8c.16-1.09.33-2.08.51-2.94s.34-1.64.51-2.3a8,8,0,0,0,.24-1.85,2.14,2.14,0,0,0-.37-1.1,10.82,10.82,0,0,0-.85-1.22c-.33-.41-.64-.78-1-1.12a8.93,8.93,0,0,1-.67-.79c-.19-.41-.4-.81-.63-1.22a4.64,4.64,0,0,0-.83-1.08,3.84,3.84,0,0,0-1.18-.75,4.5,4.5,0,0,0-1.71-.28,20.29,20.29,0,0,0-7.56,1.46,21.89,21.89,0,0,0-6.91,4.55,38.19,38.19,0,0,0-3.58,4,56.78,56.78,0,0,0-3.31,4.73q-1.56,2.51-2.91,5.15a48.81,48.81,0,0,0-2.29,5.22,41.2,41.2,0,0,0-1.51,5,19.92,19.92,0,0,0-.55,4.37,8.23,8.23,0,0,0,.77,3.62,8,8,0,0,0,2.06,2.66,9.07,9.07,0,0,0,3,1.65,10.58,10.58,0,0,0,3.45.57,5.53,5.53,0,0,0,2.24-.75,29.25,29.25,0,0,0,3.15-1.93q1.68-1.18,3.39-2.65a38.29,38.29,0,0,0,3-2.84l1.24-1.49c.58-.69,1.21-1.45,1.89-2.29s1.33-1.67,1.95-2.48,1.1-1.47,1.43-2a9.24,9.24,0,0,0,.63,3.18,13.27,13.27,0,0,0,1.71,3.19,10.19,10.19,0,0,0,2.49,2.46,5.18,5.18,0,0,0,3,1,10.3,10.3,0,0,0,2.73-.4,17.22,17.22,0,0,0,3-1.18,27.78,27.78,0,0,0,3.09-1.83,30,30,0,0,0,3-2.36q2.73-2.45,5.43-5.22a59.65,59.65,0,0,0,4.38-5.1c0,.3-.06.58-.09.89-.14,1.38-.28,2.63-.43,3.76s-.3,2.15-.45,3.07-.28,1.76-.4,2.52-.24,1.48-.35,2.15c-.08.52-.17,1.09-.26,1.73s-.19,1.28-.29,1.93-.17,1.29-.22,1.91-.08,1.17-.08,1.63a3,3,0,0,0,.38,1.44,4.27,4.27,0,0,0,1.1,1.28,6.38,6.38,0,0,0,1.69.94,6.18,6.18,0,0,0,2.15.36,5.91,5.91,0,0,0,2.08-.3,3.84,3.84,0,0,0,1.4-1,11.38,11.38,0,0,0,1.3-1.74c.45-.72,1-1.61,1.73-2.67.49-.7,1.18-1.71,2.09-3s1.93-2.69,3.07-4.18,2.35-3,3.62-4.42a35.15,35.15,0,0,1,3.74-3.71,34.07,34.07,0,0,0,1.2,9.12,17.1,17.1,0,0,0,3.15,6.24,12.28,12.28,0,0,0,4.92,3.6,17.35,17.35,0,0,0,6.5,1.16,19.86,19.86,0,0,0,6.83-1.08,17.48,17.48,0,0,0,5-2.7,12.25,12.25,0,0,0,3.05-3.48,7.2,7.2,0,0,0,1-3.43,3.39,3.39,0,0,0-.22-1.45A.67.67,0,0,0,826.8,689.22Zm-82.08-21.47c-.06.43-.13.92-.23,1.44s-.19,1.07-.3,1.61l-.29,1.42a20.78,20.78,0,0,1-1.6,4.29,46.79,46.79,0,0,1-2.71,4.8,57.87,57.87,0,0,1-3.35,4.72q-1.82,2.29-3.54,4.08a25.26,25.26,0,0,1-3.21,2.87,4.54,4.54,0,0,1-2.42,1.08,1.2,1.2,0,0,1-.79-.35,1.32,1.32,0,0,1-.39-1,15.51,15.51,0,0,1,.37-3.47,19.46,19.46,0,0,1,1-3.11,26.91,26.91,0,0,1,1.29-2.75c.46-.85.89-1.64,1.3-2.38a66.68,66.68,0,0,1,4.43-6.89,39.14,39.14,0,0,1,4-4.61,16.4,16.4,0,0,1,3.46-2.66,8.28,8.28,0,0,1,2.94-1,2.35,2.35,0,0,1,.15.55,3.24,3.24,0,0,1,.06.47A9.66,9.66,0,0,1,744.72,667.75Z"></path><path d="M841.2,691.29a6.75,6.75,0,0,0-2.58-.41q-6.75,0-7.12,2.81a8.24,8.24,0,0,0-.14,1.34c0,.52,0,1.15,0,1.91a19.47,19.47,0,0,0,.16,2.73,4.23,4.23,0,0,0,.68,1.85,3,3,0,0,0,1.44,1.05,7.3,7.3,0,0,0,2.48.35,4.35,4.35,0,0,0,1.81-.53,12.55,12.55,0,0,0,2.37-1.59,15.85,15.85,0,0,0,2.16-2,3.54,3.54,0,0,0,.85-1.42,15.26,15.26,0,0,0,.41-2.81,2.72,2.72,0,0,0-.77-2A4.82,4.82,0,0,0,841.2,691.29Z"></path></svg>