<svg data-testid="redcompra" viewBox="0 0 24 24" fill="none" xmlns="http://www.w3.org/2000/svg" role="img"
    aria-label="Redcompra" class="svelte-1igv2ol medium-2IRZkh">
    <title>Redcompra</title>
    <path fill-rule="evenodd" clip-rule="evenodd" d="M1 10H11.6067L10.3713 14.4373H1V10Z" fill="#E30613"></path>
    <path fill-rule="evenodd" clip-rule="evenodd" d="M23 10L21.7447 14.4373H10.3713L11.6067 10H23Z" fill="#312783">
    </path>
    <path
        d="M13.1997 12.1053C13.2235 11.9583 13.2315 11.8352 13.2275 11.7319C13.2235 11.6286 13.2036 11.5452 13.1758 11.4777C13.148 11.4101 13.1123 11.3545 13.0686 11.3188C13.0249 11.279 12.9772 11.2512 12.9216 11.2353C12.866 11.2194 12.8143 11.2115 12.7547 11.2115C12.6475 11.2115 12.5402 11.2353 12.4409 11.279C12.3376 11.3227 12.2423 11.3942 12.1549 11.4896C12.0635 11.5849 11.9801 11.7081 11.9046 11.855C11.8291 12.006 11.7616 12.1848 11.706 12.3913C11.6504 12.6019 11.6146 12.7807 11.6067 12.9356C11.5987 13.0865 11.6146 13.2137 11.6504 13.313C11.6861 13.4123 11.7417 13.4838 11.8172 13.5315C11.8887 13.5791 11.9801 13.603 12.0874 13.603C12.1787 13.603 12.2701 13.5911 12.3575 13.5632C12.4449 13.5354 12.5283 13.4838 12.6117 13.4123C12.6952 13.3408 12.7706 13.2415 12.8501 13.1143C12.9256 12.9872 12.9971 12.8243 13.0646 12.6257C12.9375 12.6257 12.8104 12.6257 12.6872 12.6257C12.6554 12.7211 12.6157 12.8005 12.572 12.868C12.5243 12.9356 12.4767 12.9872 12.425 13.0269C12.3734 13.0627 12.3178 13.0826 12.2622 13.0826C12.1867 13.0826 12.1271 13.0548 12.0913 13.0031C12.0516 12.9515 12.0317 12.872 12.0317 12.7687C12.0317 12.6654 12.0516 12.5423 12.0913 12.3993C12.1311 12.2523 12.1787 12.1331 12.2343 12.0298C12.29 11.9305 12.3495 11.8511 12.4171 11.7994C12.4846 11.7478 12.5561 11.72 12.6316 11.72C12.6832 11.72 12.723 11.7319 12.7587 11.7557C12.7905 11.7796 12.8143 11.8193 12.8302 11.8789C12.8421 11.9345 12.8461 12.0139 12.8342 12.1093C12.9494 12.1053 13.0726 12.1053 13.1997 12.1053ZM13.2473 12.3953C13.1917 12.6059 13.1639 12.7846 13.1599 12.9396C13.156 13.0905 13.1719 13.2176 13.2116 13.3169C13.2513 13.4163 13.3109 13.4878 13.3904 13.5354C13.4698 13.5831 13.5651 13.6069 13.6764 13.6069C13.7876 13.6069 13.8949 13.5831 13.9982 13.5354C14.1014 13.4878 14.1968 13.4163 14.2882 13.3169C14.3795 13.2176 14.459 13.0945 14.5345 12.9396C14.606 12.7886 14.6695 12.6059 14.7251 12.3953C14.7768 12.1848 14.8046 12.006 14.8046 11.859C14.8086 11.7081 14.7887 11.5849 14.749 11.4896C14.7092 11.3942 14.6497 11.3227 14.5702 11.279C14.4947 11.2353 14.3994 11.2115 14.2882 11.2115C14.1809 11.2115 14.0736 11.2353 13.9743 11.279C13.875 11.3227 13.7797 11.3942 13.6883 11.4896C13.5969 11.5849 13.5175 11.7081 13.442 11.859C13.3665 12.01 13.299 12.1887 13.2473 12.3953ZM13.6247 12.3953C13.6605 12.2483 13.7082 12.1292 13.7638 12.0259C13.8194 11.9266 13.879 11.8471 13.9425 11.7955C14.0101 11.7438 14.0816 11.716 14.1571 11.716C14.2325 11.716 14.2882 11.7438 14.3279 11.7955C14.3676 11.8471 14.3875 11.9226 14.3914 12.0259C14.3954 12.1252 14.3755 12.2483 14.3398 12.3953C14.304 12.5423 14.2564 12.6654 14.2047 12.7648C14.1491 12.868 14.0895 12.9435 14.022 12.9991C13.9545 13.0508 13.883 13.0786 13.8075 13.0786C13.732 13.0786 13.6724 13.0508 13.6327 12.9991C13.593 12.9475 13.5731 12.868 13.5691 12.7648C13.5691 12.6654 13.585 12.5423 13.6247 12.3953ZM16.3857 13.5195C16.5088 13.5195 16.632 13.5195 16.7551 13.5195C16.8147 13.2653 16.8703 13.0111 16.9299 12.7568C16.9895 12.5065 17.0451 12.2523 17.1047 12.006C17.1365 11.863 17.1524 11.7398 17.1524 11.6405C17.1524 11.5412 17.1365 11.4618 17.1087 11.4061C17.0809 11.3466 17.0451 11.3068 16.9974 11.279C16.9498 11.2512 16.8981 11.2393 16.8425 11.2393C16.7432 11.2393 16.6439 11.2751 16.5525 11.3466C16.4611 11.4181 16.3698 11.5174 16.2903 11.6524C16.2903 11.569 16.2824 11.4975 16.2665 11.434C16.2506 11.3744 16.2188 11.3267 16.1751 11.2909C16.1314 11.2552 16.0758 11.2393 16.0083 11.2393C15.9566 11.2393 15.901 11.2512 15.8494 11.2711C15.7977 11.2949 15.7461 11.3227 15.6984 11.3585C15.6507 11.3942 15.607 11.434 15.5673 11.4777C15.5276 11.5214 15.4958 11.569 15.464 11.6127H15.4601C15.4879 11.5055 15.5117 11.4022 15.5395 11.2949C15.4243 11.2949 15.3051 11.2949 15.1899 11.2949C15.0986 11.6604 15.0072 12.0259 14.9158 12.3953C14.8245 12.7648 14.7331 13.1422 14.6377 13.5156C14.7609 13.5156 14.884 13.5156 15.0072 13.5156C15.0588 13.313 15.1065 13.1104 15.1542 12.9078C15.2018 12.7052 15.2535 12.5065 15.3012 12.3039C15.321 12.2165 15.3488 12.1411 15.3766 12.0775C15.4084 12.0139 15.4402 11.9583 15.4759 11.9186C15.5117 11.8749 15.5475 11.8471 15.5872 11.8233C15.6269 11.8034 15.6627 11.7915 15.7024 11.7915C15.7302 11.7915 15.754 11.7955 15.7739 11.8074C15.7977 11.8193 15.8136 11.8392 15.8295 11.867C15.8454 11.8948 15.8533 11.9345 15.8533 11.9822C15.8533 12.0298 15.8454 12.0934 15.8295 12.1649C15.7779 12.3874 15.7222 12.6098 15.6706 12.8323C15.615 13.0548 15.5633 13.2812 15.5077 13.5076C15.6309 13.5076 15.754 13.5076 15.8772 13.5076C15.9248 13.305 15.9725 13.1024 16.0202 12.8998C16.0679 12.6972 16.1155 12.4986 16.1632 12.296C16.1831 12.2086 16.2109 12.1331 16.2387 12.0696C16.2665 12.006 16.3022 11.9504 16.334 11.9107C16.3698 11.867 16.4055 11.8392 16.4453 11.8153C16.481 11.7955 16.5207 11.7835 16.5565 11.7835C16.5843 11.7835 16.6081 11.7875 16.632 11.7994C16.6558 11.8113 16.6757 11.8312 16.6876 11.859C16.7035 11.8868 16.7114 11.9266 16.7114 11.9742C16.7114 12.0219 16.7074 12.0855 16.6876 12.157C16.6359 12.3794 16.5843 12.6019 16.5326 12.8243C16.4889 13.0667 16.4373 13.2931 16.3857 13.5195ZM17.6132 12.4072C17.637 12.3 17.6688 12.2086 17.7045 12.1291C17.7403 12.0497 17.78 11.9822 17.8237 11.9305C17.8674 11.8789 17.9111 11.8392 17.9588 11.8113C18.0065 11.7835 18.0502 11.7716 18.0978 11.7716C18.1455 11.7716 18.1852 11.7835 18.221 11.8113C18.2567 11.8392 18.2845 11.8789 18.3044 11.9305C18.3243 11.9822 18.3362 12.0497 18.3362 12.1291C18.3362 12.2086 18.3243 12.3 18.3044 12.4072C18.2806 12.5145 18.2528 12.6059 18.217 12.6853C18.1813 12.7648 18.1415 12.8323 18.0978 12.8879C18.0541 12.9435 18.0104 12.9832 17.9628 13.0111C17.9151 13.0389 17.8674 13.0508 17.8198 13.0508C17.7721 13.0508 17.7324 13.0389 17.6966 13.0111C17.6609 12.9832 17.633 12.9435 17.6132 12.8879C17.5933 12.8323 17.5854 12.7648 17.5854 12.6853C17.5774 12.6098 17.5893 12.5145 17.6132 12.4072ZM16.8147 14.3657C16.9378 14.3657 17.061 14.3657 17.1881 14.3657C17.2278 14.183 17.2715 13.9963 17.3113 13.8135C17.351 13.6308 17.3947 13.448 17.4344 13.2653C17.4344 13.2653 17.4344 13.2653 17.4384 13.2653C17.4463 13.3328 17.4662 13.3924 17.498 13.4441C17.5258 13.4957 17.5695 13.5354 17.6172 13.5632C17.6688 13.5911 17.7284 13.603 17.7959 13.6069C17.8833 13.6069 17.9747 13.5752 18.0621 13.5195C18.1495 13.46 18.2329 13.3805 18.3124 13.2732C18.3918 13.166 18.4633 13.0389 18.5269 12.8919C18.5904 12.7449 18.6421 12.582 18.6818 12.3993C18.7255 12.2046 18.7454 12.0338 18.7414 11.8908C18.7414 11.7438 18.7215 11.6246 18.6818 11.5293C18.6421 11.434 18.5904 11.3624 18.5269 11.3148C18.4593 11.2671 18.3799 11.2433 18.2925 11.2433C18.2408 11.2433 18.1932 11.2512 18.1415 11.2711C18.0899 11.2909 18.0382 11.3267 17.9826 11.3783C17.927 11.43 17.8674 11.5015 17.7999 11.6008H17.7959C17.8198 11.5015 17.8396 11.4022 17.8635 11.3029C17.7482 11.3029 17.6291 11.3029 17.5139 11.3029C17.3987 11.8034 17.2835 12.3079 17.1683 12.8164C17.0491 13.3249 16.9339 13.8413 16.8147 14.3657ZM18.6381 13.5195C18.7612 13.5195 18.8844 13.5195 19.0075 13.5195C19.0433 13.3567 19.0751 13.1938 19.1108 13.0349C19.1466 12.872 19.1784 12.7131 19.2141 12.5542C19.2459 12.4112 19.2856 12.2881 19.3333 12.1848C19.381 12.0855 19.4366 12.006 19.5041 11.9544C19.5677 11.9027 19.6432 11.8749 19.7266 11.8749C19.7584 11.8749 19.7941 11.8829 19.8219 11.8948C19.8537 11.9067 19.8815 11.9226 19.9133 11.9424C19.961 11.716 20.0086 11.4896 20.0523 11.2671C20.0325 11.2592 20.0126 11.2552 19.9888 11.2512C19.9649 11.2472 19.9451 11.2472 19.9252 11.2472C19.8736 11.2472 19.8259 11.2552 19.7822 11.2751C19.7385 11.2949 19.6948 11.3227 19.6511 11.3624C19.6074 11.4022 19.5677 11.4538 19.524 11.5134C19.4803 11.573 19.4326 11.6485 19.381 11.7319H19.377C19.4088 11.5889 19.4366 11.4459 19.4684 11.3029C19.3532 11.3029 19.234 11.3029 19.1188 11.3029C19.0393 11.6683 18.9599 12.0338 18.8804 12.4033C18.801 12.7687 18.7176 13.1422 18.6381 13.5195ZM20.8588 12.6098C20.8429 12.6853 20.823 12.7528 20.7952 12.8124C20.7674 12.872 20.7356 12.9237 20.7038 12.9674C20.6681 13.0111 20.6323 13.0468 20.5926 13.0786C20.5529 13.1064 20.5131 13.1302 20.4734 13.1461C20.4337 13.162 20.394 13.166 20.3582 13.166C20.3105 13.166 20.2748 13.1541 20.243 13.1302C20.2152 13.1064 20.1914 13.0706 20.1834 13.023C20.1755 12.9753 20.1755 12.9197 20.1874 12.8522C20.1993 12.7846 20.2192 12.733 20.243 12.6933C20.2668 12.6535 20.2947 12.6217 20.3264 12.6019C20.3582 12.582 20.3979 12.5701 20.4416 12.5622C20.5131 12.5502 20.5886 12.5383 20.6601 12.5264C20.6959 12.5224 20.7356 12.5105 20.7753 12.4986C20.8151 12.4867 20.8548 12.4628 20.8945 12.4311C20.8866 12.4867 20.8707 12.5463 20.8588 12.6098ZM20.4019 11.9663C20.4297 11.8908 20.4575 11.8312 20.4814 11.7875C20.5092 11.7438 20.533 11.712 20.5608 11.6882C20.5886 11.6683 20.6164 11.6524 20.6482 11.6485C20.68 11.6405 20.7157 11.6405 20.7515 11.6405C20.823 11.6405 20.8746 11.6485 20.9144 11.6683C20.9501 11.6882 20.9779 11.716 20.9859 11.7557C20.9978 11.7955 20.9978 11.8431 20.9859 11.9027C20.974 11.9623 20.962 12.006 20.9462 12.0378C20.9303 12.0696 20.9104 12.0934 20.8866 12.1053C20.8627 12.1172 20.8309 12.1292 20.7912 12.1331C20.6601 12.153 20.5251 12.1689 20.394 12.1848C20.3463 12.1887 20.3026 12.2007 20.2549 12.2165C20.2073 12.2324 20.1596 12.2563 20.1159 12.2841C20.0722 12.3119 20.0285 12.3556 19.9848 12.4033C19.9451 12.4549 19.9093 12.5185 19.8736 12.5939C19.8418 12.6694 19.81 12.7648 19.7901 12.872C19.7623 13.0031 19.7544 13.1143 19.7584 13.2057C19.7623 13.2971 19.7822 13.3726 19.814 13.4321C19.8458 13.4917 19.8895 13.5354 19.9451 13.5593C20.0007 13.5871 20.0642 13.599 20.1397 13.599C20.1834 13.599 20.2271 13.595 20.2788 13.5831C20.3304 13.5712 20.382 13.5553 20.4337 13.5315C20.4853 13.5076 20.537 13.4719 20.5886 13.4321C20.6403 13.3885 20.6879 13.3368 20.7316 13.2732C20.7277 13.313 20.7197 13.3527 20.7157 13.3924C20.7118 13.4321 20.7118 13.4719 20.7078 13.5116C20.8309 13.5116 20.9541 13.5116 21.0772 13.5116C21.0733 13.456 21.0772 13.3885 21.0852 13.3169C21.0931 13.2415 21.1051 13.1541 21.1249 13.0587C21.1607 12.872 21.1964 12.6893 21.2322 12.5026C21.2679 12.3198 21.3037 12.1371 21.3394 11.9544C21.3553 11.8709 21.3672 11.7915 21.3712 11.72C21.3752 11.6445 21.3712 11.577 21.3553 11.5134C21.3394 11.4498 21.3116 11.3982 21.2759 11.3545C21.2361 11.3108 21.1845 11.2751 21.117 11.2472C21.0494 11.2234 20.962 11.2075 20.8588 11.2075C20.7992 11.2075 20.7396 11.2115 20.68 11.2194C20.6164 11.2274 20.5608 11.2472 20.5012 11.2751C20.4416 11.3029 20.386 11.3466 20.3304 11.4022C20.2748 11.4578 20.2271 11.5293 20.1795 11.6207C20.1318 11.712 20.0921 11.8233 20.0563 11.9583C20.1675 11.9663 20.2827 11.9663 20.4019 11.9663Z"
        fill="white"></path>
    <path
        d="M5.5009 11.0767C5.70747 11.0767 5.91405 11.0767 6.12459 11.0767C6.15637 11.0767 6.18418 11.0807 6.21199 11.0926C6.2398 11.1046 6.25966 11.1244 6.27952 11.1522C6.29541 11.18 6.30336 11.2198 6.30733 11.2674C6.30733 11.3151 6.29541 11.3787 6.27555 11.4541C6.25569 11.5256 6.22788 11.5852 6.20007 11.6329C6.17227 11.6806 6.14048 11.7203 6.1087 11.7521C6.07692 11.7839 6.04514 11.8037 6.01336 11.8196C5.98158 11.8315 5.95377 11.8395 5.92597 11.8395C5.71145 11.8395 5.49296 11.8395 5.27844 11.8395C5.342 11.5852 5.42145 11.331 5.5009 11.0767ZM4.90502 11.4144H1V11.7799H4.79379L4.73023 11.9825H1V12.3519H4.61502L4.55146 12.5545H1V12.92H4.44023L4.36475 13.1623H1V13.5278H4.24955H4.25749H4.26544H4.27338H4.27736H4.28133H4.28927H4.29722H4.30516H4.31311H4.32105H4.329H4.33694H4.34489H4.35284H4.36078H4.36872H4.37667H4.38462H4.39256H4.39653H4.4005H4.40845H4.4164H4.42434H4.43229H4.44023H4.44818H4.45612H4.46407H4.47201H4.47996H4.4879H4.49585H4.50379H4.51174H4.51968H4.75009L5.11556 12.4115C5.31022 12.4115 5.50488 12.4115 5.7035 12.4115C5.74323 12.4115 5.77501 12.4195 5.80282 12.4354C5.83063 12.4513 5.85049 12.4791 5.85843 12.5188C5.87035 12.5585 5.87035 12.6102 5.86241 12.6817C5.85446 12.7492 5.8346 12.8366 5.80282 12.9438C5.77898 13.0233 5.75912 13.0908 5.73926 13.1504C5.72337 13.21 5.70747 13.2617 5.69953 13.3014C5.68761 13.3451 5.67967 13.3848 5.6757 13.4206C5.67172 13.4563 5.66775 13.4921 5.66775 13.5278C5.84651 13.5278 6.02528 13.5278 6.20404 13.5278C6.1961 13.4881 6.19213 13.4404 6.1961 13.3808C6.20007 13.3212 6.21199 13.2617 6.22391 13.1941C6.23583 13.1306 6.25171 13.067 6.2676 13.0074C6.28349 12.9518 6.29541 12.9041 6.30733 12.8644C6.32719 12.8048 6.34308 12.7412 6.36295 12.6697C6.37884 12.6022 6.39473 12.5347 6.40664 12.4671C6.41856 12.3996 6.42253 12.336 6.42253 12.2765C6.42253 12.2169 6.41062 12.1692 6.39473 12.1295C6.37884 12.0897 6.35103 12.0659 6.3113 12.054C6.3113 12.05 6.3113 12.05 6.31528 12.0461C6.43445 11.9825 6.53774 11.8951 6.62116 11.7719C6.70459 11.6528 6.77609 11.4978 6.83171 11.3151C6.85157 11.2515 6.86746 11.184 6.87938 11.1125C6.8913 11.037 6.89924 10.9655 6.89527 10.894C6.89527 10.8225 6.87938 10.755 6.85554 10.6954C6.83171 10.6358 6.78801 10.5881 6.73239 10.5524C6.67678 10.5166 6.59733 10.4968 6.49801 10.4968C6.06103 10.4968 5.62405 10.4968 5.19104 10.4968L4.90502 11.4144ZM7.78909 12.8525C7.72553 12.9518 7.658 13.0233 7.57855 13.0749C7.50307 13.1266 7.41567 13.1504 7.32828 13.1504C7.2528 13.1504 7.19321 13.1306 7.14951 13.0948C7.10581 13.0591 7.07403 13.0114 7.05417 12.9558C7.03431 12.9002 7.02636 12.8406 7.03033 12.777C7.03431 12.7134 7.04225 12.6539 7.05814 12.5982C7.05814 12.5943 7.05814 12.5943 7.06212 12.5903C7.4991 12.5903 7.93211 12.5903 8.36909 12.5903C8.37703 12.5665 8.381 12.5466 8.38895 12.5228C8.47635 12.2367 8.51607 11.9944 8.51607 11.7918C8.5121 11.5892 8.46443 11.4383 8.36909 11.331C8.27374 11.2237 8.12676 11.1721 7.93211 11.1721C7.79704 11.1721 7.66992 11.1959 7.54677 11.2436C7.42362 11.2913 7.30841 11.3628 7.19718 11.4621C7.08992 11.5614 6.99061 11.6885 6.89924 11.8435C6.80787 11.9984 6.73239 12.1811 6.66486 12.3956C6.6013 12.6102 6.56555 12.7929 6.56157 12.9478C6.5576 13.1028 6.57747 13.2299 6.62911 13.3292C6.67678 13.4285 6.74828 13.504 6.84362 13.5477C6.93897 13.5953 7.05417 13.6192 7.18924 13.6192C7.3243 13.6192 7.45937 13.5914 7.58649 13.5397C7.71361 13.4881 7.83676 13.4047 7.948 13.2895C8.0632 13.1743 8.17046 13.0312 8.2658 12.8485C8.1069 12.8525 7.948 12.8525 7.78909 12.8525ZM7.19718 12.1493C7.19718 12.1454 7.19718 12.1454 7.20115 12.1414C7.20513 12.1295 7.21705 12.1056 7.23294 12.0699C7.2528 12.0302 7.27663 11.9904 7.30841 11.9428C7.34019 11.8951 7.37992 11.8474 7.42759 11.8037C7.47526 11.7561 7.5269 11.7203 7.58649 11.6885C7.64608 11.6567 7.70964 11.6409 7.78115 11.6409C7.84471 11.6409 7.89635 11.6528 7.93608 11.6806C7.9758 11.7084 8.00361 11.7402 8.02347 11.7839C8.04334 11.8276 8.05525 11.8713 8.05923 11.915C8.0632 11.9626 8.0632 12.0063 8.05923 12.0461C8.05525 12.0858 8.05128 12.1215 8.03936 12.1454C8.03936 12.1493 8.03936 12.1493 8.03539 12.1533C7.75731 12.1493 7.47923 12.1493 7.19718 12.1493ZM9.04839 12.4036C9.08017 12.2963 9.1199 12.201 9.16757 12.1176C9.21524 12.0341 9.26688 11.9666 9.3225 11.911C9.37811 11.8554 9.43373 11.8156 9.49332 11.7878C9.55291 11.76 9.60852 11.7441 9.66811 11.7441C9.72373 11.7441 9.7714 11.7561 9.8151 11.7878C9.85482 11.8156 9.8866 11.8554 9.91044 11.911C9.93427 11.9666 9.94222 12.0341 9.94222 12.1176C9.93824 12.201 9.92235 12.2963 9.89057 12.4036C9.85879 12.5108 9.81907 12.6062 9.7714 12.6896C9.72373 12.773 9.67208 12.8406 9.61647 12.8962C9.56085 12.9518 9.50523 12.9915 9.44565 13.0193C9.38606 13.0471 9.33044 13.063 9.27483 13.063C9.21921 13.063 9.16757 13.0471 9.12784 13.0193C9.08414 12.9915 9.05237 12.9518 9.0325 12.8962C9.00867 12.8406 9.00072 12.773 9.00469 12.6896C9.00072 12.6062 9.01661 12.5108 9.04839 12.4036ZM9.54893 13.5318C9.69195 13.5318 9.83496 13.5318 9.98194 13.5318C10.1369 13.0154 10.2878 12.5029 10.4428 11.9904C10.5937 11.478 10.7486 10.9655 10.8996 10.457C10.7526 10.457 10.6017 10.457 10.4547 10.457C10.3991 10.6358 10.3474 10.8185 10.2918 10.9973C10.2362 11.1761 10.1845 11.3588 10.1289 11.5376H10.125C10.117 11.47 10.0971 11.4104 10.0614 11.3588C10.0256 11.3072 9.98194 11.2674 9.92235 11.2396C9.86277 11.2118 9.79126 11.1959 9.70784 11.1959C9.60058 11.1959 9.49332 11.2237 9.38606 11.2833C9.2788 11.3389 9.17154 11.4224 9.07223 11.5296C8.97291 11.6369 8.88155 11.764 8.79812 11.915C8.7147 12.0659 8.64319 12.2328 8.58758 12.4155C8.52799 12.6141 8.49621 12.7889 8.48826 12.9399C8.48032 13.0908 8.49621 13.214 8.53593 13.3133C8.57566 13.4126 8.63127 13.4881 8.70675 13.5397C8.78223 13.5914 8.8736 13.6152 8.98086 13.6152C9.04839 13.6152 9.11592 13.6073 9.18743 13.5834C9.25894 13.5636 9.33044 13.5238 9.40195 13.4682C9.47346 13.4126 9.54893 13.3371 9.62839 13.2418H9.63236C9.60455 13.3411 9.57674 13.4364 9.54893 13.5318Z"
        fill="white"></path>
</svg>
